<svg width="808" height="602" viewBox="0 0 808 602" fill="none" xmlns="http://www.w3.org/2000/svg">
<g clip-path="url(#clip0)">
<path d="M402 602L1 398L402 201L808.5 398L402 602Z" fill="#29B7CA" stroke="#29B7CA"/>
<path d="M402 504L1 300L402 103L808.5 300L402 504Z" fill="#A45F0E" stroke="black"/>
<path d="M402 401L1 197L402 0L808.5 197L402 401Z" fill="#1FAA00" stroke="black"/>
<path d="M128.5 172C113.7 234.4 36.6667 214.667 0 197L402.5 0.5L625 108C607.5 134.5 545.5 104 543.5 93.5001C541.5 83.0001 502 47.0001 505 83.5001C508 120 444 110 402.5 110C361 110 494 235.5 367 181C265.4 137.4 348.333 237.167 402.5 292.5C370.833 302 299.5 316.9 267.5 300.5C227.5 280 344 292.5 307.5 253C271 213.5 256.5 224.5 240.5 260C227.7 288.4 201.5 238.5 190 210C175.667 171.333 143.3 109.6 128.5 172Z" fill="#1FAA00" stroke="black"/>
<path d="M128.5 172.48C113.7 234.88 36.6667 215.146 0 197.48L402.5 401.479L808 197.479L625 108.479C607.5 134.979 545.5 104.48 543.5 93.9796C541.5 83.4796 502 47.4796 505 83.9796C508 120.48 444 110.48 402.5 110.48C361 110.48 494 235.98 367 181.48C265.4 137.88 348.333 237.646 402.5 292.98C370.833 302.48 299.5 317.38 267.5 300.98C227.5 280.48 344 292.98 307.5 253.48C271 213.98 256.5 224.98 240.5 260.48C227.7 288.88 201.5 238.98 190 210.48C175.667 171.813 143.3 110.08 128.5 172.48Z" fill="#9CFF57" stroke="black"/>
<path d="M548 202C529 206.5 492.6 220.1 499 238.5C505.4 256.9 471.333 267.167 453.5 270C453.5 273 450.2 281.4 437 291C420.5 303 430.5 286.5 422 311C415.2 330.6 406.833 332.5 403.5 331L380 349L360.5 380L337.5 368.5L378.5 331L417.5 298.5L437 266L472 252.5C476.833 246.333 486.5 233 486.5 229C486.5 225 516.5 204 531.5 194L581.5 167.5C586.5 157.5 600.4 139.9 616 149.5C631.6 159.1 641.833 143.167 645 134C654.399 134 664.429 129.745 671.412 133.647C671.574 133.205 672.712 132.45 673.5 132L682 136C685.5 140.5 688.7 148.8 673.5 146C654.5 142.5 655 147.5 654 157.5C653.2 165.5 633.667 168.833 624 169.5L593.5 183L548 202Z" fill="#DD3A16"/>
</g>
<defs>
<clipPath id="clip0">
<rect width="808" height="602" fill="white"/>
</clipPath>
</defs>
</svg>
